<svg xmlns="http://www.w3.org/2000/svg" width="1083.399" height="605.795" viewBox="0 0 1083.399 605.795">
  <g id="people3" transform="translate(-123.545 -145.999)">
    <path id="Path_1" data-name="Path 1" d="M407.487,147.1c154.548-8.937,316.585,37.617,292.767,105.1s127.338-23.971,187.66.361c42.946,17.322,25.778,70.055,46.555,91.3,47.637,48.719,96.356-12.631,156.985,24.179s35.418,381.047,10.732,381l-934.959-1.707-11.187.361s-68.568-98.883-6.5-156.624S169,506.927,161.453,484.61c-8.661-25.623-28.871-70.372,59.185-103.213s65.32-104.3,63.155-119.092S252.94,156.035,407.487,147.1Z" transform="translate(0)" fill="#eafcfc"/>
    <rect id="Rectangle_1" data-name="Rectangle 1" width="70.826" height="548.21" transform="translate(883.873 199.218)" fill="#9bc1f9" opacity="0.6"/>
    <rect id="Rectangle_2" data-name="Rectangle 2" width="70.825" height="380.993" transform="translate(784.962 366.435)" fill="#9bc1f9" opacity="0.6"/>
    <rect id="Rectangle_3" data-name="Rectangle 3" width="70.825" height="429.435" transform="translate(984.208 317.993)" fill="#9bc1f9" opacity="0.6"/>
    <rect id="Rectangle_4" data-name="Rectangle 4" width="70.826" height="446.323" transform="translate(686.05 301.105)" fill="#9bc1f9" opacity="0.6"/>
    <rect id="Rectangle_5" data-name="Rectangle 5" width="70.826" height="313.991" transform="translate(587.139 433.437)" fill="#9bc1f9" opacity="0.6"/>
    <g id="Group_1" data-name="Group 1" transform="translate(587.139 325.565)">
      <rect id="Rectangle_6" data-name="Rectangle 6" width="70.826" height="421.863" transform="translate(296.735 0)" fill="#9bc1f9" opacity="0.3" style="mix-blend-mode: multiply;isolation: isolate"/>
      <rect id="Rectangle_7" data-name="Rectangle 7" width="70.825" height="293.185" transform="translate(197.823 128.678)" fill="#9bc1f9" opacity="0.3" style="mix-blend-mode: multiply;isolation: isolate"/>
      <rect id="Rectangle_8" data-name="Rectangle 8" width="70.825" height="330.462" transform="translate(397.07 91.4)" fill="#9bc1f9" opacity="0.3" style="mix-blend-mode: multiply;isolation: isolate"/>
      <rect id="Rectangle_9" data-name="Rectangle 9" width="70.826" height="343.458" transform="translate(98.911 78.404)" fill="#9bc1f9" opacity="0.3" style="mix-blend-mode: multiply;isolation: isolate"/>
      <rect id="Rectangle_10" data-name="Rectangle 10" width="70.826" height="241.625" transform="translate(0 180.238)" fill="#9bc1f9" opacity="0.3" style="mix-blend-mode: multiply;isolation: isolate"/>
    </g>
    <path id="Path_2" data-name="Path 2" d="M1937.77,308.447l-56.436,42.683,21.528,1.373-134.72,237.107-74.593-111.834L1588.026,723.907l-67.873-96.4-84.6,119.582,5.323,21.4,79.237-111.464,71.746,101.9L1697,513.7l72.375,108.507,149.151-262.5,13.847,14.892Z" transform="translate(-848.31 -105.034)" fill="#5183bf"/>
    <g id="Group_3" data-name="Group 3" transform="translate(210.77 343.059)">
      <path id="Path_3" data-name="Path 3" d="M682.3,949.417c-80.988-64.492-149.036-147.908-200.56-245.853L370.344,793.046C429.916,906.293,508.6,1002.74,602.235,1077.307Z" transform="translate(-370.344 -703.564)" fill="#3c8f7c"/>
      <path id="Path_4" data-name="Path 4" d="M501.016,769.735l-69.194,56.472c5.493,10.24,3.5,24.055-4.683,31.063,52.369,92.6,118,173.053,194.428,238.337,6.249-9.378,18.027-11.2,26.49-4.331l50.484-79.409c-7.788-6.321-8.9-19.239-2.656-28.609-67.114-57.33-124.749-127.98-170.737-209.3C516.971,780.965,506.072,779.158,501.016,769.735Z" transform="translate(-407.066 -746.348)" fill="#96d9c9"/>
      <g id="Group_2" data-name="Group 2" transform="translate(108.782 144.96)">
        <path id="Path_5" data-name="Path 5" d="M756.514,1203.825c17.292-22.315,17.126-55.238.815-74.932-16.356-19.644-44.3-20.569-63.631-.709-19.3,19.818-21.145,55.045-2.758,77.161C709.306,1227.487,739.258,1226.1,756.514,1203.825Z" transform="translate(-678.134 -1113.719)" fill="#50bfa5"/>
        <path id="Path_6" data-name="Path 6" d="M790.909,1174.8q-3.259,3.619-6.519,7.236c5.2,9.529,4.1,19.374-1.507,25.808-5.658,6.478-11.994,7.078-21.652,1.355-7.014-3.963-10.385-5.133-12.523-2.816-1.808,1.955-2.408,5.5,1.425,10.349a26.434,26.434,0,0,0,6,5.622c2.455,1.651,3.23,5.379,1.718,8.247h0c-1.463,2.772-4.552,3.692-6.918,2.006a36.907,36.907,0,0,1-6.325-5.869q-2.82,3.112-5.64,6.223-2.953-3.7-5.872-7.446,3.07-3.326,6.139-6.654c-4.965-9.59-3.978-19.122,1.784-25.169,6.361-6.681,13.717-4.629,22.149.66,5.847,3.649,9.236,4.225,11.658,1.53,2.552-2.845,1.722-7.182-1.494-11.283a28.672,28.672,0,0,0-7.295-6.553c-2.481-1.562-3.156-5.385-1.487-8.242l.182-.313c1.514-2.594,4.406-3.472,6.612-2.033a38.879,38.879,0,0,1,8,7.119q3.062-3.337,6.122-6.675Q788.174,1171.366,790.909,1174.8Z" transform="translate(-713.674 -1148.018)" fill="#3c8f7c"/>
        <path id="Path_7" data-name="Path 7" d="M966.849,1439.327q-27.684-23.7-53.312-50.19l-8.777,11.414q25.967,26.832,54.059,50.893Z" transform="translate(-824.664 -1291.796)" fill="#50bfa5"/>
      </g>
    </g>
    <g id="Group_5" data-name="Group 5" transform="translate(159.39 462.596)">
      <path id="Path_8" data-name="Path 8" d="M571.785,1142.1c-101.725-12.9-201.489-46.936-294.037-100.312l-52.782,123.666c107.006,61.716,222.356,101.068,339.973,115.984Z" transform="translate(-224.966 -1041.788)" fill="#3c8f7c"/>
      <path id="Path_9" data-name="Path 9" d="M304.71,1102.9l-32.353,77.524c9.768,5.53,14.8,17.436,11.131,26.865,90.667,48.734,186.889,81.561,285.048,97.246.83-10.4,10.147-17.408,20.84-15.959q2.461-43.441,4.921-86.882c-9.84-1.335-17.121-11.061-16.291-21.45-86.2-13.774-170.7-42.6-250.316-85.4C324.028,1104.27,313.7,1107.988,304.71,1102.9Z" transform="translate(-255.608 -1076.095)" fill="#96d9c9"/>
      <g id="Group_4" data-name="Group 4" transform="translate(140.283 88.547)">
        <path id="Path_10" data-name="Path 10" d="M715,1354.516c4.074-25.883-12.169-51.933-35.935-59.852-23.78-7.859-48.45,4.616-55.493,29.514-7.035,24.851,8.592,53.68,35.342,62.54C685.656,1395.608,710.938,1380.354,715,1354.516Z" transform="translate(-621.886 -1292.325)" fill="#50bfa5"/>
        <path id="Path_11" data-name="Path 11" d="M731.744,1322.31q-1.055,4.412-2.112,8.824c9.165,5.1,13.026,13.438,11.315,21.194-1.736,7.815-6.934,11.286-18.1,11.31-8.016.17-11.51.835-12.23,3.684-.612,2.406.6,5.506,6.3,7.54a27.639,27.639,0,0,0,7.953,1.623,6.008,6.008,0,0,1,5.521,5.733h0a4.591,4.591,0,0,1-5.015,4.862,38.6,38.6,0,0,1-8.352-1.668q-.921,3.8-1.845,7.6-4.371-1.543-8.729-3.134,1.034-4.091,2.067-8.183c-8.992-5.263-12.8-13.294-10.761-20.818,2.246-8.309,9.624-10.157,19.518-9.946,6.851.132,10.07-1.013,10.851-4.3.82-3.465-2.021-6.513-6.812-8.248a30.059,30.059,0,0,0-9.526-1.752,5.734,5.734,0,0,1-5.319-5.838q0-.167.005-.334a4.605,4.605,0,0,1,4.736-4.738,40.808,40.808,0,0,1,10.416,1.867q1.022-4.1,2.042-8.191Q727.695,1320.879,731.744,1322.31Z" transform="translate(-670.59 -1309.835)" fill="#3c8f7c"/>
      </g>
    </g>
    <path id="Path_12" data-name="Path 12" d="M990.747,733.328a62.867,62.867,0,0,1-7.241-2.89,36.413,36.413,0,0,0-8.257-3.1c-4.568-.7-12.416-.234-16.75,4.451-5.4,5.837-14.993,1.054-13.061,31.627,2.188,34.6,21.494,30.806,21.963,30.221S984.62,771.5,984.62,771.5s5.857,12.768,5.857,12.3C990.476,783.344,1020.381,743.274,990.747,733.328Z" transform="translate(-531.249 -375.707)" fill="#0e2e35"/>
    <g id="Group_7" data-name="Group 7" transform="translate(219.58 585.749)">
      <path id="Path_13" data-name="Path 13" d="M655.536,1390.24c-80.035,31.622-168.341,46.077-260.267,42.6q9.152,58.674,18.3,117.347c106.287,4.016,208.389-12.7,300.927-49.259Z" transform="translate(-395.269 -1390.24)" fill="#3c8f7c"/>
      <path id="Path_14" data-name="Path 14" d="M422.492,1478.815q6,36.631,12.009,73.261c9.655.287,18.782,7.449,20.439,16.249,88.424.648,173.6-13.294,252.31-41.3-4.167-8.39-.6-17.63,7.859-20.882l-36.29-69.287c-7.782,2.991-17.551-1.561-21.714-9.944-69.124,24.594-143.917,36.838-221.567,36.269C437.2,1471.974,431.376,1479.078,422.492,1478.815Z" transform="translate(-412.871 -1413.95)" fill="#96d9c9"/>
      <g id="Group_6" data-name="Group 6" transform="translate(118.582 53.221)">
        <path id="Path_15" data-name="Path 15" d="M812.978,1573.046c-8.911-21.708-32.7-35.235-53.651-31.645-20.932,3.642-33.181,23.393-26.885,45.552,6.279,22.12,30.9,38.051,54.452,33.969C810.46,1616.867,821.879,1594.713,812.978,1573.046Z" transform="translate(-730.787 -1540.826)" fill="#50bfa5"/>
        <path id="Path_16" data-name="Path 16" d="M804.852,1560.059q1.257,3.848,2.511,7.7c9.02.2,15.658,5.077,17.971,11.782,2.322,6.761.128,11.575-8,16.162-5.762,3.412-8,5.356-7.219,7.856.658,2.113,2.967,4.016,8.047,3.262a21.966,21.966,0,0,0,6.539-2,5.4,5.4,0,0,1,6.654,2.18h0c1.391,2.2.773,4.811-1.422,5.816a30.677,30.677,0,0,1-6.85,2.124q1.074,3.321,2.146,6.643-3.893.593-7.8,1.145-1.124-3.591-2.25-7.181c-8.967-.4-15.426-5.059-17.395-11.718-2.178-7.352,2.35-11.8,9.655-15.685,5.052-2.7,6.872-4.9,5.934-7.766-.992-3.018-4.461-4.217-8.748-3.6a23.83,23.83,0,0,0-7.745,2.54c-2.154,1.14-5.188.042-6.555-2.344l-.15-.261c-1.241-2.166-.676-4.614,1.276-5.606a32.332,32.332,0,0,1,8.446-2.815q-1.136-3.589-2.272-7.177Q801.247,1560.607,804.852,1560.059Z" transform="translate(-768.763 -1553.261)" fill="#3c8f7c"/>
        <path id="Path_17" data-name="Path 17" d="M1048.653,1569.26q-28.553,10.122-58.259,17.609l4.586,11.054q30.1-7.588,59.075-17.855Z" transform="translate(-898.642 -1559.211)" fill="#50bfa5"/>
      </g>
    </g>
    <g id="Group_9" data-name="Group 9" transform="translate(347.798 706.06)">
      <path id="Path_18" data-name="Path 18" d="M758.053,1755.244V1783.9c0,4.633,51.679,8.388,115.427,8.388s115.428-3.755,115.428-8.388v-28.655Z" transform="translate(-758.053 -1746.552)" fill="#e59f39"/>
      <g id="Group_8" data-name="Group 8" transform="translate(0 8.692)">
        <path id="Path_19" data-name="Path 19" d="M841.586,1791.962v-36.718H758.053V1783.9C758.053,1787.727,793.35,1790.957,841.586,1791.962Z" transform="translate(-758.053 -1755.244)" fill="#eab054"/>
        <path id="Path_20" data-name="Path 20" d="M1005.4,1792.038c8.967.163,18.348.249,28.007.249,14.392,0,28.169-.192,40.875-.542v-36.5H1005.4Z" transform="translate(-917.983 -1755.244)" fill="#eab054"/>
        <path id="Path_21" data-name="Path 21" d="M1213.385,1791.61c41.125-1.283,69.928-4.253,69.928-7.711v-28.655h-69.928Z" transform="translate(-1052.458 -1755.244)" fill="#eab054"/>
      </g>
      <ellipse id="Ellipse_1" data-name="Ellipse 1" cx="115.427" cy="8.388" rx="115.427" ry="8.388" transform="translate(0)" fill="#e59f39"/>
      <path id="Path_22" data-name="Path 22" d="M1005.808,1743.744c0,3.212-42.556,5.816-95.052,5.816s-95.052-2.6-95.052-5.816,42.556-5.815,95.052-5.815S1005.808,1740.533,1005.808,1743.744Z" transform="translate(-795.328 -1735.356)" fill="#f7cc7f"/>
    </g>
    <g id="Group_11" data-name="Group 11" transform="translate(328.049 675.738)">
      <path id="Path_23" data-name="Path 23" d="M702.176,1669.449V1698.1c0,4.632,51.679,8.388,115.428,8.388s115.427-3.756,115.427-8.388v-28.655Z" transform="translate(-702.176 -1660.757)" fill="#e59f39"/>
      <g id="Group_10" data-name="Group 10" transform="translate(0 8.692)">
        <path id="Path_24" data-name="Path 24" d="M785.709,1706.167v-36.719H702.176V1698.1C702.176,1701.932,737.473,1705.162,785.709,1706.167Z" transform="translate(-702.176 -1669.449)" fill="#eab054"/>
        <path id="Path_25" data-name="Path 25" d="M949.526,1706.243c8.967.162,18.348.249,28.007.249,14.392,0,28.169-.192,40.875-.541v-36.5H949.526Z" transform="translate(-862.106 -1669.449)" fill="#eab054"/>
        <path id="Path_26" data-name="Path 26" d="M1157.508,1705.815c41.125-1.283,69.928-4.253,69.928-7.711v-28.655h-69.928Z" transform="translate(-996.581 -1669.449)" fill="#eab054"/>
      </g>
      <ellipse id="Ellipse_2" data-name="Ellipse 2" cx="115.427" cy="8.388" rx="115.427" ry="8.388" transform="translate(0)" fill="#e59f39"/>
      <path id="Path_27" data-name="Path 27" d="M949.931,1657.95c0,3.212-42.556,5.815-95.052,5.815s-95.052-2.6-95.052-5.815,42.556-5.816,95.052-5.816S949.931,1654.738,949.931,1657.95Z" transform="translate(-739.452 -1649.562)" fill="#f7cc7f"/>
    </g>
    <g id="Group_13" data-name="Group 13" transform="translate(341.207 644.61)">
      <path id="Path_28" data-name="Path 28" d="M739.405,1581.375v28.655c0,4.633,51.679,8.388,115.427,8.388s115.428-3.755,115.428-8.388v-28.655Z" transform="translate(-739.405 -1572.683)" fill="#e59f39"/>
      <g id="Group_12" data-name="Group 12" transform="translate(0 8.692)">
        <path id="Path_29" data-name="Path 29" d="M822.938,1618.093v-36.718H739.405v28.655C739.405,1613.858,774.7,1617.087,822.938,1618.093Z" transform="translate(-739.405 -1581.375)" fill="#eab054"/>
        <path id="Path_30" data-name="Path 30" d="M986.755,1618.169c8.967.163,18.348.249,28.007.249,14.392,0,28.169-.192,40.875-.542v-36.5H986.755Z" transform="translate(-899.335 -1581.375)" fill="#eab054"/>
        <path id="Path_31" data-name="Path 31" d="M1194.737,1617.741c41.125-1.283,69.928-4.253,69.928-7.711v-28.655h-69.928Z" transform="translate(-1033.81 -1581.375)" fill="#eab054"/>
      </g>
      <ellipse id="Ellipse_3" data-name="Ellipse 3" cx="115.427" cy="8.388" rx="115.427" ry="8.388" transform="translate(0)" fill="#e59f39"/>
      <path id="Path_32" data-name="Path 32" d="M987.16,1569.875c0,3.212-42.556,5.815-95.052,5.815s-95.052-2.6-95.052-5.815,42.556-5.816,95.052-5.816S987.16,1566.663,987.16,1569.875Z" transform="translate(-776.681 -1561.487)" fill="#f7cc7f"/>
    </g>
    <g id="Group_15" data-name="Group 15" transform="translate(328.049 613.908)">
      <path id="Path_33" data-name="Path 33" d="M702.176,1494.507v28.655c0,4.632,51.679,8.388,115.428,8.388s115.427-3.755,115.427-8.388v-28.655Z" transform="translate(-702.176 -1485.815)" fill="#e59f39"/>
      <g id="Group_14" data-name="Group 14" transform="translate(0 8.692)">
        <path id="Path_34" data-name="Path 34" d="M785.709,1531.225v-36.718H702.176v28.655C702.176,1526.99,737.473,1530.219,785.709,1531.225Z" transform="translate(-702.176 -1494.507)" fill="#eab054"/>
        <path id="Path_35" data-name="Path 35" d="M949.526,1531.3c8.967.162,18.348.249,28.007.249,14.392,0,28.169-.192,40.875-.541v-36.5H949.526Z" transform="translate(-862.106 -1494.507)" fill="#eab054"/>
        <path id="Path_36" data-name="Path 36" d="M1157.508,1530.872c41.125-1.283,69.928-4.252,69.928-7.711v-28.655h-69.928Z" transform="translate(-996.581 -1494.507)" fill="#eab054"/>
      </g>
      <ellipse id="Ellipse_4" data-name="Ellipse 4" cx="115.427" cy="8.388" rx="115.427" ry="8.388" transform="translate(0)" fill="#e59f39"/>
      <path id="Path_37" data-name="Path 37" d="M949.931,1483.007c0,3.212-42.556,5.816-95.052,5.816s-95.052-2.6-95.052-5.816,42.556-5.816,95.052-5.816S949.931,1479.8,949.931,1483.007Z" transform="translate(-739.452 -1474.619)" fill="#f7cc7f"/>
    </g>
    <g id="Group_17" data-name="Group 17" transform="translate(914.21 703.945)">
      <path id="Path_38" data-name="Path 38" d="M2582.678,1748.316v27.556c0,4.455-49.7,8.066-111,8.066s-111-3.611-111-8.066v-27.556Z" transform="translate(-2360.675 -1739.957)" fill="#e59f39"/>
      <g id="Group_16" data-name="Group 16" transform="translate(0 8.359)">
        <path id="Path_39" data-name="Path 39" d="M2761.529,1783.627v-35.311h80.33v27.556C2841.859,1779.554,2807.916,1782.659,2761.529,1783.627Z" transform="translate(-2619.856 -1748.316)" fill="#eab054"/>
        <path id="Path_40" data-name="Path 40" d="M2629.768,1783.7c-8.623.156-17.645.239-26.933.239-13.84,0-27.089-.184-39.308-.52v-35.1h66.24Z" transform="translate(-2491.833 -1748.316)" fill="#eab054"/>
        <path id="Path_41" data-name="Path 41" d="M2427.921,1783.288c-39.548-1.234-67.246-4.09-67.246-7.416v-27.556h67.246Z" transform="translate(-2360.675 -1748.316)" fill="#eab054"/>
      </g>
      <ellipse id="Ellipse_5" data-name="Ellipse 5" cx="111.001" cy="8.066" rx="111.001" ry="8.066" transform="translate(0)" fill="#e59f39"/>
      <path id="Path_42" data-name="Path 42" d="M2416.115,1737.257c0,3.089,40.925,5.593,91.407,5.593s91.407-2.5,91.407-5.593-40.924-5.592-91.407-5.592S2416.115,1734.169,2416.115,1737.257Z" transform="translate(-2396.521 -1729.191)" fill="#f7cc7f"/>
    </g>
    <g id="Group_19" data-name="Group 19" transform="translate(933.201 674.785)">
      <path id="Path_43" data-name="Path 43" d="M2636.413,1665.811v27.556c0,4.455-49.7,8.066-111,8.066s-111-3.611-111-8.066v-27.556Z" transform="translate(-2414.409 -1657.453)" fill="#e59f39"/>
      <g id="Group_18" data-name="Group 18" transform="translate(0 8.359)">
        <path id="Path_44" data-name="Path 44" d="M2815.264,1701.122v-35.311h80.33v27.556C2895.594,1697.049,2861.651,1700.154,2815.264,1701.122Z" transform="translate(-2673.59 -1665.811)" fill="#eab054"/>
        <path id="Path_45" data-name="Path 45" d="M2683.5,1701.195c-8.623.156-17.644.239-26.933.239-13.84,0-27.089-.184-39.308-.521v-35.1H2683.5Z" transform="translate(-2545.568 -1665.811)" fill="#eab054"/>
        <path id="Path_46" data-name="Path 46" d="M2481.655,1700.783c-39.548-1.234-67.246-4.089-67.246-7.416v-27.556h67.246Z" transform="translate(-2414.409 -1665.811)" fill="#eab054"/>
      </g>
      <ellipse id="Ellipse_6" data-name="Ellipse 6" cx="111.002" cy="8.066" rx="111.002" ry="8.066" transform="translate(0)" fill="#e59f39"/>
      <ellipse id="Ellipse_7" data-name="Ellipse 7" cx="91.407" cy="5.592" rx="91.407" ry="5.592" transform="translate(19.594 2.474)" fill="#f7cc7f"/>
    </g>
    <g id="Group_21" data-name="Group 21" transform="translate(920.547 644.851)">
      <path id="Path_47" data-name="Path 47" d="M2600.61,1581.113v27.556c0,4.455-49.7,8.066-111,8.066s-111-3.611-111-8.066v-27.556Z" transform="translate(-2378.607 -1572.754)" fill="#e59f39"/>
      <g id="Group_20" data-name="Group 20" transform="translate(0 8.359)">
        <path id="Path_48" data-name="Path 48" d="M2779.463,1616.424v-35.311h80.33v27.556C2859.792,1612.351,2825.849,1615.456,2779.463,1616.424Z" transform="translate(-2637.789 -1581.113)" fill="#eab054"/>
        <path id="Path_49" data-name="Path 49" d="M2647.7,1616.5c-8.623.156-17.645.239-26.933.239-13.841,0-27.089-.184-39.308-.52v-35.1H2647.7Z" transform="translate(-2509.766 -1581.113)" fill="#eab054"/>
        <path id="Path_50" data-name="Path 50" d="M2445.854,1616.085c-39.548-1.234-67.247-4.09-67.247-7.416v-27.556h67.247Z" transform="translate(-2378.607 -1581.113)" fill="#eab054"/>
      </g>
      <ellipse id="Ellipse_8" data-name="Ellipse 8" cx="111.002" cy="8.066" rx="111.002" ry="8.066" transform="translate(0.001)" fill="#e59f39"/>
      <ellipse id="Ellipse_9" data-name="Ellipse 9" cx="91.407" cy="5.592" rx="91.407" ry="5.592" transform="translate(19.595 2.474)" fill="#f7cc7f"/>
    </g>
    <g id="Group_23" data-name="Group 23" transform="translate(933.201 615.326)">
      <path id="Path_51" data-name="Path 51" d="M2636.413,1497.576v27.556c0,4.455-49.7,8.066-111,8.066s-111-3.612-111-8.066v-27.556Z" transform="translate(-2414.409 -1489.218)" fill="#e59f39"/>
      <g id="Group_22" data-name="Group 22" transform="translate(0 8.359)">
        <path id="Path_52" data-name="Path 52" d="M2815.264,1532.886v-35.31h80.33v27.556C2895.594,1528.814,2861.651,1531.919,2815.264,1532.886Z" transform="translate(-2673.59 -1497.576)" fill="#eab054"/>
        <path id="Path_53" data-name="Path 53" d="M2683.5,1532.959c-8.623.156-17.644.239-26.933.239-13.84,0-27.089-.184-39.308-.52v-35.1H2683.5Z" transform="translate(-2545.568 -1497.576)" fill="#eab054"/>
        <path id="Path_54" data-name="Path 54" d="M2481.655,1532.547c-39.548-1.234-67.246-4.089-67.246-7.415v-27.556h67.246Z" transform="translate(-2414.409 -1497.576)" fill="#eab054"/>
      </g>
      <ellipse id="Ellipse_10" data-name="Ellipse 10" cx="111.002" cy="8.066" rx="111.002" ry="8.066" transform="translate(0)" fill="#e59f39"/>
      <ellipse id="Ellipse_11" data-name="Ellipse 11" cx="91.407" cy="5.592" rx="91.407" ry="5.592" transform="translate(19.594 2.474)" fill="#f7cc7f"/>
    </g>
    <g id="Group_25" data-name="Group 25" transform="translate(1012.617 535.375)">
      <path id="Path_55" data-name="Path 55" d="M2833.346,1304.555l-6.668,23.279c-1.078,3.764-43.936-5.211-95.725-20.045s-92.9-29.911-91.822-33.674l6.668-23.279Z" transform="translate(-2639.111 -1249.731)" fill="#e59f39"/>
      <g id="Group_24" data-name="Group 24" transform="translate(0 1.105)">
        <path id="Path_56" data-name="Path 56" d="M2972.5,1377.663l8.544-29.83,67.862,19.438-6.668,23.279C3041.346,1393.66,3011.92,1388.071,2972.5,1377.663Z" transform="translate(-2854.67 -1313.552)" fill="#eab054"/>
        <path id="Path_57" data-name="Path 57" d="M2861.263,1345.841c-7.322-1.955-14.964-4.068-22.81-6.315-11.692-3.349-22.84-6.711-33.081-9.951l8.494-29.654,55.959,16.029Z" transform="translate(-2746.61 -1282.573)" fill="#eab054"/>
        <path id="Path_58" data-name="Path 58" d="M2694.147,1296.651c-33.111-10.612-55.819-19.727-55.015-22.536l6.668-23.279,56.809,16.272Z" transform="translate(-2639.111 -1250.836)" fill="#eab054"/>
      </g>
      <path id="Path_59" data-name="Path 59" d="M2658.2,1248.567c-1.078,3.763,40.032,18.84,91.821,33.674s94.647,23.809,95.725,20.046-40.032-18.84-91.821-33.674S2659.277,1244.8,2658.2,1248.567Z" transform="translate(-2651.439 -1247.71)" fill="#e59f39"/>
      <path id="Path_60" data-name="Path 60" d="M2705.05,1262.63c-.747,2.609,33.22,14.628,75.867,26.843s77.826,20,78.573,17.394-33.219-14.627-75.866-26.843S2705.8,1260.021,2705.05,1262.63Z" transform="translate(-2681.737 -1257.031)" fill="#f7cc7f"/>
    </g>
    <g id="Group_27" data-name="Group 27" transform="translate(959.589 428.936)">
      <path id="Path_61" data-name="Path 61" d="M2675.866,949.5l7.1,23.151c1.148,3.743-39.674,19.581-91.178,35.376s-94.188,25.565-95.336,21.823l-7.1-23.151Z" transform="translate(-2489.253 -948.46)" fill="#e59f39"/>
      <g id="Group_26" data-name="Group 26" transform="translate(0.099 1.045)">
        <path id="Path_62" data-name="Path 62" d="M2835.224,999.867l-9.1-29.666,67.489-20.7,7.1,23.151C2901.663,975.748,2873.946,987.1,2835.224,999.867Z" transform="translate(-2707.101 -949.504)" fill="#eab054"/>
        <path id="Path_63" data-name="Path 63" d="M2724.544,1040.517c-7.2,2.353-14.762,4.747-22.566,7.14-11.628,3.566-22.806,6.825-33.159,9.691l-9.044-29.491,55.652-17.067Z" transform="translate(-2599.543 -989.13)" fill="#eab054"/>
        <path id="Path_64" data-name="Path 64" d="M2554.859,1091.7c-33.544,9.153-57.55,13.89-58.407,11.1l-7.1-23.151,56.5-17.326Z" transform="translate(-2489.352 -1022.449)" fill="#eab054"/>
      </g>
      <path id="Path_65" data-name="Path 65" d="M2489.1,1004.546c1.147,3.743,43.83-6.028,95.335-21.823s92.326-31.633,91.178-35.376-43.831,6.028-95.335,21.823S2487.948,1000.8,2489.1,1004.546Z" transform="translate(-2489.072 -946.549)" fill="#e59f39"/>
      <path id="Path_66" data-name="Path 66" d="M2535.691,1009.337c.8,2.595,35.823-5.846,78.236-18.853s76.15-25.654,75.354-28.25-35.823,5.846-78.236,18.853S2534.9,1006.742,2535.691,1009.337Z" transform="translate(-2519.206 -956.388)" fill="#f7cc7f"/>
    </g>
    <path id="Path_67" data-name="Path 67" d="M1295.066,1758.253s2.744,14.559,2.746,14.589c.154,1.9.1,6.693.506,8.35,1.541,6.225,27.726-8.905,20.857-10.122-.622-.11-5.128-4.67-6.16-6.6a57.793,57.793,0,0,1-3.446-9.618Z" transform="translate(-757.473 -1040.239)" fill="#f7a491"/>
    <path id="Path_68" data-name="Path 68" d="M1314.386,1794.33a102.368,102.368,0,0,1-10.2,2.017c-3.44.344-7.855-5-10.322-3.989-2.716,1.112-4.195,18.068-4.195,18.068s43.193,1.967,53.4-.853C1347.114,1808.456,1327.826,1799.48,1314.386,1794.33Z" transform="translate(-753.983 -1064.406)" fill="#4ec2d3"/>
    <path id="Path_69" data-name="Path 69" d="M1465.474,1756.375s2.744,14.559,2.746,14.59c.153,1.9.1,6.693.506,8.35,1.541,6.225,27.244-7.91,20.374-9.126-.622-.11-4.646-5.666-5.678-7.6a57.792,57.792,0,0,1-3.446-9.618Z" transform="translate(-867.654 -1039.024)" fill="#f7a491"/>
    <path id="Path_70" data-name="Path 70" d="M1482.915,1794.33a102.383,102.383,0,0,1-10.2,2.017c-3.44.344-7.855-5-10.322-3.989-2.716,1.112-4.195,18.068-4.195,18.068s43.193,1.967,53.4-.853C1515.643,1808.456,1496.355,1799.48,1482.915,1794.33Z" transform="translate(-862.949 -1064.406)" fill="#4ec2d3"/>
    <path id="Path_71" data-name="Path 71" d="M1039.191,1310.116l78.577-18.227s35.238-9.316,43.744,1.62,44.626,161.866,44.626,161.866-18.632,1.62-19.847.81l-43.614-77.411a67.521,67.521,0,0,1-8.046-23.81l-3.093-22.166-32,9.316s-36.859,8.1-51.845-1.216S1039.191,1310.116,1039.191,1310.116Z" transform="translate(-591.13 -738.508)" fill="#0e2e35"/>
    <path id="Path_72" data-name="Path 72" d="M1105.385,966.929c1.241.051,4.642,1.185,9.615,10.553,6.351,11.962,15.634,48.1,15.634,48.1l-27.707,10.284-3.56-7.542-5.863-58.066S1105.041,966.915,1105.385,966.929Z" transform="translate(-627.148 -530.79)" fill="#eab054"/>
    <path id="Path_73" data-name="Path 73" d="M933.587,952.191c7.923.011,27.527,2.315,36.626,5.212,0,0,6.684,57.256-6.018,100.764-2.843,9.74,2.352,40.373,2.352,40.373l-82.1-1.08s9.726-74.058,6.062-86.02-3.752-53.652-3.752-53.652.563-.087,18.446-3.168A186.5,186.5,0,0,1,933.587,952.191Z" transform="translate(-491.977 -521.26)" fill="#f7cc7f"/>
    <path id="Path_74" data-name="Path 74" d="M865.034,985.875c7.677-2.87,11.432,66.061,12.467,94.434,13.594,1.3,37.288.01,43.188-.432,2.775-.208,9.172-2.543,11.932-2.9a27.722,27.722,0,0,1,6.781-.32c.511.088,14.68,5.863,15.892,7.13,1.5,1.57,5.567,5.532,4.881,7.245s-7.816-4.773-7.816-4.773l-3.484-1.948c4.338,4.223,12.612,9.785,11.42,11.811-1.162,1.975-8.626-3.669-13.945-7.516,4.562,4.107,10.231,11.457,8.925,12.6-1.174,1.029-7.621-7.479-14.511-9.929-2.553-.908-5.1,1.606-7.107,1.91-1.477.223-3.756.7-5.2.29l-6.92-.668a36.094,36.094,0,0,0-5.712.831c-2.979.632-7.868,1.3-11.662,2.221-21.85,5.32-29.137,7.791-35.827,7.787C848.067,1103.633,846.892,992.658,865.034,985.875Z" transform="translate(-471.148 -542.983)" fill="#f7a491"/>
    <path id="Path_75" data-name="Path 75" d="M846.221,1038.806c-1.438-29.062-1.227-64.882,15.119-70.994,6.45-2.411,17.82,12.088,15.775,71.584C868.389,1040.114,855.577,1040.692,846.221,1038.806Z" transform="translate(-466.903 -531.2)" fill="#eab054"/>
    <path id="Path_76" data-name="Path 76" d="M1094.383,1118.866l-77.351,5.053a5.054,5.054,0,0,0-4.462,3.435L992.547,1187l-42.644,2.786a2.163,2.163,0,0,0-2.018,2.3h0a2.163,2.163,0,0,0,2.3,2.016l121.369-7.928a8.491,8.491,0,0,0,7.4-5.508l20.492-54.989A5.054,5.054,0,0,0,1094.383,1118.866Z" transform="translate(-532.992 -629.021)" fill="#4ec2d3"/>
    <path id="Path_77" data-name="Path 77" d="M1237.887,1213.9c-.154,2.662-2.169,4.712-4.5,4.578s-4.1-2.4-3.943-5.063,2.169-4.712,4.5-4.577S1238.04,1211.233,1237.887,1213.9Z" transform="translate(-715.037 -687.194)" fill="#fff"/>
    <path id="Path_78" data-name="Path 78" d="M883.283,1328.22l85.628-14.784s37.022-5.64,45.528,5.3,33.213,152.7,33.213,152.7-18.632,1.621-19.847.811c-.941-.628-23.5-47.889-33.63-69.183a80.935,80.935,0,0,1-6.722-21.307l-3.256-19.295-10.775,3.709a131.515,131.515,0,0,1-58.984,6.312c-8.32-1.033-16.086-2.811-20.9-5.8C878.548,1357.358,883.283,1328.22,883.283,1328.22Z" transform="translate(-490.766 -753.891)" fill="#184655"/>
    <path id="Path_79" data-name="Path 79" d="M996.352,887.007l1.667,12.365s3.733,17.814-1.07,21.248-20.426-21.756-20.426-21.756l1.65-31.332Z" transform="translate(-551.512 -466.522)" fill="#f7a491"/>
    <path id="Path_80" data-name="Path 80" d="M979.684,877.686c3.968,10.686,13.418,17.255,20.125,19.8L998.4,887.007l-18.179-19.475Z" transform="translate(-553.555 -466.522)" fill="#4ec2d3"/>
    <path id="Path_81" data-name="Path 81" d="M991.461,770.677a16.524,16.524,0,0,1,19.053,16.674,124.948,124.948,0,0,1-1.394,15.859c-2.213,14.274-11.984,26.843-18.446,25.72s-22.718-13.435-19.856-33.747C972.586,782.644,980.781,772.4,991.461,770.677Z" transform="translate(-547.607 -403.763)" fill="#f7a491"/>
    <path id="Path_82" data-name="Path 82" d="M966.92,835.281c-.545,3.138-3.068,5.322-5.634,4.876s-4.206-3.352-3.66-6.491,3.068-5.322,5.635-4.876S967.466,832.142,966.92,835.281Z" transform="translate(-539.225 -441.436)" fill="#f7a491"/>
    <path id="Path_83" data-name="Path 83" d="M969.248,782.452s7.812,1.935,10.711-3.073,13.266-15.813,26.443-11.333-11.6-10.893-12.651-10.893-13.7-.088-13.7-.088-9.751,7.995-10.1,8.873-3.162,10.454-3.162,10.454Z" transform="translate(-545.213 -395.098)" fill="#0e2e35"/>
    <g id="Group_29" data-name="Group 29" transform="translate(806.833 675.895)">
      <rect id="Rectangle_11" data-name="Rectangle 11" width="194.459" height="70.775" transform="translate(194.459 70.775) rotate(180)" fill="#50bfa5"/>
      <g id="Group_28" data-name="Group 28">
        <rect id="Rectangle_12" data-name="Rectangle 12" width="194.459" height="9.105" transform="translate(194.459 19.419) rotate(180)" fill="#96d9c9"/>
        <rect id="Rectangle_13" data-name="Rectangle 13" width="194.459" height="9.105" transform="translate(194.459 37.204) rotate(180)" fill="#96d9c9"/>
        <rect id="Rectangle_14" data-name="Rectangle 14" width="194.459" height="9.105" transform="translate(194.459 54.988) rotate(180)" fill="#96d9c9"/>
        <rect id="Rectangle_15" data-name="Rectangle 15" width="194.459" height="9.105" transform="translate(194.459 70.775) rotate(180)" fill="#96d9c9"/>
        <rect id="Rectangle_16" data-name="Rectangle 16" width="40.443" height="70.775" transform="translate(112.833 70.775) rotate(180)" fill="#f7cc7f"/>
      </g>
      <rect id="Rectangle_17" data-name="Rectangle 17" width="29.367" height="70.775" transform="translate(221.467 70.775) rotate(180)" fill="#3c8f7c"/>
    </g>
    <path id="Path_84" data-name="Path 84" d="M1183.245,254.287a19.319,19.319,0,0,0-23.685-14.347,28.438,28.438,0,0,0-34.195-15.105,35.032,35.032,0,0,0-62.924,6.12,24.03,24.03,0,0,0-35.714,21c0,.787.04,1.564.114,2.332Z" transform="translate(-583.972 -40.017)" fill="#fff" opacity="0.8"/>
    <path id="Path_85" data-name="Path 85" d="M1452.31,544.8a14.62,14.62,0,0,0-17.923-10.857,21.522,21.522,0,0,0-25.878-11.431,26.511,26.511,0,0,0-47.619,4.632,18.186,18.186,0,0,0-27.027,15.892c0,.6.031,1.184.087,1.764Z" transform="translate(-782.558 -235.151)" fill="#fff" opacity="0.8"/>
    <path id="Path_86" data-name="Path 86" d="M736.453,515.087a12.748,12.748,0,0,1,15.629-9.468,18.768,18.768,0,0,1,22.565-9.968,23.118,23.118,0,0,1,41.524,4.039,15.858,15.858,0,0,1,23.568,13.858c0,.519-.027,1.032-.076,1.539Z" transform="translate(-396.289 -218.846)" fill="#fff" opacity="0.8"/>
    <g id="Group_30" data-name="Group 30" transform="translate(544.387 356.975)">
      <path id="Path_87" data-name="Path 87" d="M1354.678,762.942l1.378,16.769,9.741-10.97,31.5-25.8-26.865,8.464s-13.226,6.425-13.833,7.274A34.749,34.749,0,0,0,1354.678,762.942Z" transform="translate(-1340.403 -742.94)" fill="#50bfa5"/>
      <path id="Path_88" data-name="Path 88" d="M1314.287,755.736l56.9-12.8-42.622,20Z" transform="translate(-1314.287 -742.94)" fill="#96d9c9"/>
      <path id="Path_89" data-name="Path 89" d="M1384.507,775.36l-17.538-8.75,38.278-23.669Z" transform="translate(-1348.35 -742.94)" fill="#96d9c9"/>
    </g>
    <g id="Group_33" data-name="Group 33" transform="translate(523.94 383.865)">
      <g id="Group_31" data-name="Group 31" transform="translate(27.648 0)">
        <path id="Path_90" data-name="Path 90" d="M1335.1,821.446a20.774,20.774,0,0,1,4.582-1.2l-.129-1.219a21.732,21.732,0,0,0-4.885,1.276Z" transform="translate(-1334.664 -819.023)" fill="#3c8f7c"/>
      </g>
      <g id="Group_32" data-name="Group 32" transform="translate(0 6.239)">
        <path id="Path_91" data-name="Path 91" d="M1256.435,931.977a49.854,49.854,0,0,0,6.169-6.746l.978.738a51,51,0,0,1-6.321,6.913Zm10.907-14.548c.6-1.262,1.154-2.577,1.644-3.908.555-1.508,1.045-3.084,1.459-4.685l1.187.306c-.424,1.64-.927,3.255-1.5,4.8-.5,1.367-1.071,2.717-1.688,4.012Zm4.951-26.81,1.225-.028a79.168,79.168,0,0,1-.3,9.332l-1.22-.115A77.9,77.9,0,0,0,1272.294,890.618Zm-1.744-18.376,1.213-.174c.514,3.587.88,6.518,1.153,9.224l-1.22.123C1271.425,878.728,1271.06,875.813,1270.55,872.243Zm-1.372-9.231a45.113,45.113,0,0,1-.463-9.306l1.223.076a43.931,43.931,0,0,0,.452,9.047l.011.071-1.214.167Zm1.541-18.517a22.262,22.262,0,0,1,5.321-7.819l.842.891a21.043,21.043,0,0,0-5.029,7.392Z" transform="translate(-1256.435 -836.676)" fill="#3c8f7c"/>
      </g>
    </g>
  </g>
</svg>
